# xmcd CD database file
#
# Track frame offsets:
#	150
#	12063
#	25654
#	39312
#	47999
#	64061
#	76464
#	88067
#	100358
#	113693
#	128548
#	139143
#	157467
#	172528
#	184160
#	197398
#
# Disc length: 2829 seconds
#
# Revision: 0
# Processed by: cddbd v1.5.2PL0 Copyright (c) Steve Scherf et al.
# Submitted via: CDex 1.70beta2
#
DISCID=c70b0b10
DTITLE=Jenny Boneja and the Ballroomshakers - We've got a feeling
DYEAR=2011
DGENRE=Jazz
TTITLE0=I just wanna make love to you
TTITLE1=How can you leave a man like this
TTITLE2=I've got a feelin
TTITLE3=Til the well runs dry
TTITLE4=My baby just cares for me
TTITLE5=Hurry on down
TTITLE6=Little Daddy
TTITLE7=Mambo Italiano
TTITLE8=Teardrops from my eyes
TTITLE9=Set my soul on fire
TTITLE10=Dance with me Henry
TTITLE11=I only want you
TTITLE12=Daddy Daddy
TTITLE13=Don't leave poor me
TTITLE14=Hello little boy
TTITLE15=Georgia Slop
EXTD=YEAR: 2011
EXTT0=
EXTT1=
EXTT2=
EXTT3=
EXTT4=
EXTT5=
EXTT6=
EXTT7=
EXTT8=
EXTT9=
EXTT10=
EXTT11=
EXTT12=
EXTT13=
EXTT14=
EXTT15=
PLAYORDER=
